<svg xmlns:svg="http://www.w3.org/2000/svg" xmlns="http://www.w3.org/2000/svg" version="1.0" width="225.67999267578125" height="225.68699645996094" xml:space="preserve" style=""><rect id="backgroundrect" width="100%" height="100%" x="0" y="0" fill="none" stroke="none"/>
	<g class="currentLayer" style="">
		<title>Layer 1</title>
		<animateTransform attributeName="transform"
					attributeType="XML"
					type="rotate"
					from="0 112.835 112.835"
					to="360 112.835 112.835"
					dur="20s"
					repeatCount="indefinite"/>
		<g id="g13" class="" stroke="#1db954" stroke-opacity="1">
			<path d="M222.34666746735573,112.84738233786821 C222.34666746735573,173.3303089428544 173.32389875143764,222.35307765877246 112.83611984825134,222.35307765877246 C52.362897839665415,222.3540481184125 3.333335906267166,173.3303089428544 3.333335906267166,112.84738233786821 C3.333335906267166,52.36639665216207 52.362897839665415,3.333923339843751 112.83611984825134,3.333923339843751 C173.32389875143764,3.333923339843751 222.34666746735573,52.36639665216207 222.34666746735573,112.84738233786821 z" id="path15" stroke="#1db954" stroke-opacity="1"/>
			<path d="M150.64134558510779,112.84738233786821 C150.64134558510779,133.72293965446949 133.71749992269278,150.65454899400473 112.83611984825134,150.65454899400473 C91.95668069308995,150.65454899400473 75.0318645710349,133.72391011410951 75.0318645710349,112.84738233786821 C75.0318645710349,91.96600226342677 91.95668069308995,75.04215660101175 112.83611984825134,75.04215660101175 C133.71749992269278,75.04215660101175 150.64134558510779,91.9669727230668 150.64134558510779,112.84738233786821 z" id="path17" style="fill:#00000" stroke="#1db954" stroke-opacity="1"/>
			<path d="M116.74707219755649,112.84738233786821 C116.74707219755649,115.00859595620632 114.99733346658945,116.76027560645342 112.83611984825134,116.76027560645342 C110.68266990703344,116.76027560645342 108.92613795858621,115.00859595620632 108.92613795858621,112.84738233786821 C108.92613795858621,110.68519825989009 110.68266990703344,108.93545952892303 112.83611984825134,108.93545952892303 C114.99733346658945,108.93545952892303 116.74707219755649,110.68616871953012 116.74707219755649,112.84738233786821 z" id="path119" stroke="#1db954" stroke-opacity="1"/>
			<path d="M22.836663291871552,67.59387886381148 C33.33994797587395,46.741612578570845 50.87809459042549,30.043884012281893 72.33398677176237,20.60907539194822 " id="path23" style="fill: none; stroke-width: 2.5007; stroke-linecap: round; stroke-linejoin: round;" stroke="#1db954" stroke-opacity="1"/>
			<path d="M205.07442679417133,153.3466040354371 C194.93118263661862,176.41540013849735 176.38861029464007,194.95700202083586 153.3149618933797,205.10024617838857 " id="path27" style="fill: none; stroke-width: 2.5007; stroke-linecap: round; stroke-linejoin: round;" stroke="#1db954" stroke-opacity="1"/>
			<path d="M29.491105043530467,66.70299691426754 C38.995786757946014,49.559827373206616 53.63905226629973,35.66284532803297 71.33538380217551,27.08010027164221 " id="path31" style="fill: none; stroke-width: 2.5007; stroke-linecap: round; stroke-linejoin: round;" stroke="#1db954" stroke-opacity="1"/>
			<path d="M198.6344566229582,154.28212712842227 C189.29378258770706,173.59524442458152 173.61406618380545,189.2749608284831 154.30094888764617,198.6282508390546 " id="path35" style="fill: none; stroke-width: 2.5007; stroke-linecap: round; stroke-linejoin: round;" stroke="#1db954" stroke-opacity="1"/>
			<path d="M33.68737252700328,69.41446114850044 C42.92129600185156,52.625509376049045 57.342326252639296,39.091479236245156 74.78536782246827,30.970672968506815 " id="path41" style="fill: none; stroke-width: 2.5007; stroke-linecap: round; stroke-linejoin: round;" stroke="#1db954" stroke-opacity="1"/>
			<path d="M194.79822966593505,150.71762887060643 C185.91270120185612,169.91720238888263 170.48530430436134,185.46396582210065 151.37501307296753,194.49506323218344 " id="path45" style="fill: none; stroke-width: 2.5007; stroke-linecap: round; stroke-linejoin: round;" stroke="#1db954" stroke-opacity="1"/>
			<path d="M192.17604771858453,144.09424182742833 C184.81317042970656,162.7823831154108 171.03652537989615,178.24180518102645 153.55466542446615,187.7649256286025 " id="path49" style="fill: none; stroke-width: 2.5007; stroke-linecap: round; stroke-linejoin: round;" stroke="#1db954" stroke-opacity="1"/>
			<path d="M37.13250424909592,73.61072863197326 C45.240694541513925,58.00379670107365 58.02552983921766,45.22478416121006 73.6295503911972,37.12629846519231 " id="path53" style="fill: none; stroke-width: 2.5007; stroke-linecap: round; stroke-linejoin: round;" stroke="#1db954" stroke-opacity="1"/>
			<path d="M186.614343521595,144.91622114253045 C179.17479992115497,162.0118381612301 165.9610214625597,176.0233344439268 149.43409379291535,184.47894928747414 " id="path57" style="fill: none; stroke-width: 2.5007; stroke-linecap: round; stroke-linejoin: round;" stroke="#1db954" stroke-opacity="1"/>
			<path d="M42.365222628116605,74.05325822782517 C50.42294901925326,59.44784064543248 62.89238493394852,47.61696717387438 77.97041636103391,40.349194929718976 " id="path61" style="fill: none; stroke-width: 2.5007; stroke-linecap: round; stroke-linejoin: round;" stroke="#1db954" stroke-opacity="1"/>
			<path d="M44.918501941025255,80.45829185199737 C51.49724784076214,66.67776496362686 62.15289468824864,55.21663661491871 75.31717970520258,47.62376039135456 " id="path65" style="fill: none; stroke-width: 2.5007; stroke-linecap: round; stroke-linejoin: round;" stroke="#1db954" stroke-opacity="1"/>
			<path d="M174.5563824942708,144.9036051672101 C168.55894191890954,156.43072477144003 159.425946246624,166.06253669869898 148.29089233696462,172.6791305243969 " id="path69" style="fill: none; stroke-width: 2.5007; stroke-linecap: round; stroke-linejoin: round;" stroke="#1db954" stroke-opacity="1"/>
			<path d="M52.52690551882983,78.21847100281715 C59.150292562007905,66.70979013174772 68.97134411907196,57.274011051774025 80.78280839782953,51.128090151488784 " id="path73" style="fill: none; stroke-width: 2.5007; stroke-linecap: round; stroke-linejoin: round;" stroke="#1db954" stroke-opacity="1"/>
			<path d="M167.45844068711997,145.9711107712388 C161.435768161118,155.87368093806504 152.80255920344592,164.00807364076377 142.51374609988926,169.41741567426922 " id="path77" style="fill: none; stroke-width: 2.5007; stroke-linecap: round; stroke-linejoin: round;" stroke="#1db954" stroke-opacity="1"/>
			<path d="M58.99307810032368,78.49214062130451 C65.33212046897413,68.57307264059781 74.3438086862564,60.51825762838125 85.00527829158305,55.34861912596226 " id="path81" style="fill: none; stroke-width: 2.5007; stroke-linecap: round; stroke-linejoin: round;" stroke="#1db954" stroke-opacity="1"/>
			<path d="M164.35588121795655,140.39096784108878 C159.54628324198723,149.36480813241005 152.45513465231656,156.94215700173376 143.8607440802455,162.34567627739906 " id="path85" style="fill: none; stroke-width: 2.5007; stroke-linecap: round; stroke-linejoin: round;" stroke="#1db954" stroke-opacity="1"/>
			<path d="M63.542592892766,81.51027010178565 C68.87041631650924,73.14587846440077 76.25852555602788,66.23232398885489 84.99848507410287,61.48871726840734 " id="path89" style="fill: none; stroke-width: 2.5007; stroke-linecap: round; stroke-linejoin: round;" stroke="#1db954" stroke-opacity="1"/>
			<path d="M161.20188738787175,135.8725077571273 C156.6523725954294,145.420860155344 149.35257518315314,153.40968391203882 140.33409374839067,158.81999640518427 " id="path93" style="fill: none; stroke-width: 2.5007; stroke-linecap: round; stroke-linejoin: round;" stroke="#1db954" stroke-opacity="1"/>
			<path d="M65.72321570390463,87.34661437690258 C70.67741216623783,78.21750054317712 78.20429713428021,70.68673373657465 87.33049958908558,65.73253727424145 " id="path97" style="fill: none; stroke-width: 2.5007; stroke-linecap: round; stroke-linejoin: round;" stroke="#1db954" stroke-opacity="1"/>
			<path d="M155.595542047441,134.89234352070093 C151.38665858864783,143.04420449692012 144.91563370895383,149.8383924367428 137.0092990216613,154.4393415901065 " id="path101" style="fill: none; stroke-width: 2.5007; stroke-linecap: round; stroke-linejoin: round;" stroke="#1db954" stroke-opacity="1"/>
			<path d="M71.24027875745297,88.66838040661813 C76.3148122151494,79.95947559702397 84.0503460057974,72.98866400271655 93.32794016444682,68.86518099224567 " id="path105" style="fill: none; stroke-width: 2.5007; stroke-linecap: round; stroke-linejoin: round;" stroke="#1db954" stroke-opacity="1"/>
			<path d="M152.8472003468871,129.30637783271072 C148.85861122637988,138.96924446845057 141.48408842182158,146.8755791557431 132.1929078282118,151.53378542786837 " id="path109" style="fill: none; stroke-width: 2.5007; stroke-linecap: round; stroke-linejoin: round;" stroke="#1db954" stroke-opacity="1"/>
			<path d="M74.40591810321807,92.98110304689408 C78.52066697692871,85.03692043364047 85.02371702474356,78.53095900690556 92.96789963799715,74.41621013319492 " id="path113" style="fill: none; stroke-width: 2.5007; stroke-linecap: round; stroke-linejoin: round;" stroke="#1db954" stroke-opacity="1"/>
			<path d="M183.08769318974018,139.82324895167352 C177.1853576591015,155.19921148824693 166.3773486481309,168.13640894943475 152.58808762300015,176.72982906186581 " id="path117" style="fill: none; stroke-width: 2.5007; stroke-linecap: round; stroke-linejoin: round;" stroke="#1db954" stroke-opacity="1"/>
		</g>
	</g>
</svg>